<svg version="1.1" xmlns="http://www.w3.org/2000/svg" viewBox="0 0 28 32">
  <path fill="currentColor"
    d="M11.374 1.821l2.917-1.684 11.679 6.741-2.798 1.615-0.129-0.074v0.001l-8.752-5.053-8.88 5.126-2.798-1.615 8.761-5.057zM14.299 7.386l-4.324 2.468 4.324 2.468 4.324-2.468-4.324-2.468zM19.864 12.908l-4.29 2.477v16.478l12.871-7.431v-6.591l-4.29 2.477v-3.295l4.29-2.477v-6.591l-8.581 4.954zM24.154 17.023l-4.29 2.477v-3.296l4.29-2.477v3.296zM24.154 20.318v3.296l-4.29 2.477v-3.295l4.29-2.477zM0 8.193l12.999 7.505v6.461l-4.333-2.502v-3.23l-4.333-2.502v3.23l4.333 2.502v3.23l-4.333-2.502v3.23l4.333 2.502v-3.23l4.333 2.502v6.461l-12.999-7.505v-16.152z"></path>
</svg>