<svg version="1.1" xmlns="http://www.w3.org/2000/svg" width="1024" height="1024"
  viewBox="0 0 1024 1024">
  <g id="icomoon-ignore">
</g>
  <path fill="#f0b90b"
    d="M512 0c282.79 0 512 229.21 512 512s-229.21 512-512 512-512-229.21-512-512 229.21-512 512-512v0z"></path>
  <path fill="#fff"
    d="M281.395 512l0.369 135.385 115.036 67.692v79.262l-182.359-106.954v-214.974l66.954 39.59zM281.395 376.615v78.892l-66.995-39.631v-78.892l66.995-39.631 67.323 39.631-67.323 39.631zM444.841 336.985l66.995-39.631 67.323 39.631-67.323 39.631-66.995-39.631z"></path>
  <path fill="#fff"
    d="M329.805 619.323v-79.262l66.995 39.631v78.892l-66.995-39.262zM444.841 743.467l66.995 39.631 67.323-39.631v78.892l-67.323 39.631-66.995-39.631v-78.892zM675.241 336.985l66.995-39.631 67.323 39.631v78.892l-67.323 39.631v-78.892l-66.995-39.631zM742.236 647.385l0.369-135.385 66.995-39.631v214.974l-182.359 106.954v-79.262l114.995-67.651z"></path>
  <path fill="#fff" d="M694.195 619.323l-66.995 39.262v-78.892l66.995-39.631v79.262z"></path>
  <path fill="#fff"
    d="M694.195 404.677l0.369 79.262-115.364 67.692v135.713l-66.995 39.262-66.995-39.262v-135.713l-115.364-67.692v-79.262l67.282-39.631 114.667 68.021 115.364-68.021 67.323 39.631h-0.287zM329.805 269.333l182.031-107.323 182.359 107.323-66.995 39.631-115.364-68.021-115.036 68.021-66.995-39.631z"></path>
</svg>