<svg version="1.1" xmlns="http://www.w3.org/2000/svg" fill="currentColor" viewBox="0 0 32 32">
  <path
    d="M16.529 29.395c-7.396 0-13.391-5.995-13.391-13.391s5.995-13.391 13.391-13.391c7.396 0 13.391 5.995 13.391 13.391s-5.996 13.391-13.391 13.391zM16.529 26.717c5.917 0 10.713-4.796 10.713-10.713s-4.796-10.713-10.713-10.713-10.713 4.796-10.713 10.713c0 5.917 4.796 10.713 10.713 10.713zM12.511 10.647h8.035l3.348 4.687-7.366 7.365-7.364-7.365 3.348-4.687zM13.89 13.325l-1.232 1.728 3.869 3.87 3.871-3.87-1.232-1.728h-5.276z"></path>
</svg>