<svg version="1.1" xmlns="http://www.w3.org/2000/svg" fill="currentColor" viewBox="0 0 121 32">
  <path
    d="M0.872 30.228l6.158-28.973h8.041l-4.811 22.635h11.975l-1.347 6.338h-20.017zM53.945 15.741c-0.686 3.225-1.905 5.946-3.659 8.163-1.751 2.207-3.838 3.881-6.26 5.022-2.42 1.132-4.97 1.698-7.65 1.698-2.7 0-5.018-0.571-6.954-1.712-1.925-1.151-3.294-2.829-4.107-5.036-0.802-2.216-0.862-4.928-0.18-8.134 0.686-3.225 1.899-5.942 3.641-8.148 1.753-2.216 3.835-3.89 6.245-5.022 2.422-1.141 4.982-1.712 7.682-1.712 2.68 0 4.989 0.571 6.925 1.712 1.938 1.132 3.313 2.806 4.125 5.022 0.813 2.207 0.877 4.923 0.192 8.148zM45.672 15.741c0.369-1.735 0.443-3.197 0.223-4.385-0.208-1.198-0.705-2.103-1.491-2.716-0.774-0.622-1.826-0.934-3.157-0.934s-2.52 0.311-3.568 0.934c-1.037 0.613-1.919 1.518-2.646 2.716-0.715 1.188-1.258 2.65-1.626 4.385s-0.449 3.202-0.241 4.4c0.22 1.188 0.717 2.094 1.491 2.716 0.786 0.613 1.844 0.919 3.174 0.919s2.514-0.306 3.551-0.919c1.048-0.623 1.93-1.528 2.646-2.716 0.727-1.198 1.275-2.664 1.644-4.4zM77.133 10.818c-0.019-0.5-0.124-0.938-0.313-1.316-0.188-0.387-0.456-0.712-0.805-0.976-0.337-0.274-0.757-0.476-1.259-0.608-0.491-0.141-1.049-0.212-1.676-0.212-1.35 0-2.569 0.316-3.658 0.948-1.079 0.632-1.996 1.542-2.75 2.73-0.744 1.188-1.295 2.622-1.652 4.301-0.361 1.698-0.433 3.15-0.217 4.357s0.723 2.131 1.522 2.773 1.893 0.962 3.281 0.962c1.225 0 2.279-0.174 3.163-0.523 0.894-0.349 1.611-0.844 2.153-1.485s0.904-1.396 1.088-2.264l1.358 0.142h-6.769l1.191-5.602h13.132l-0.854 4.018c-0.561 2.641-1.615 4.899-3.161 6.776-1.535 1.867-3.411 3.301-5.629 4.301-2.206 0.99-4.601 1.485-7.185 1.485-2.883 0-5.287-0.599-7.211-1.797s-3.263-2.905-4.017-5.121c-0.744-2.216-0.791-4.852-0.142-7.908 0.509-2.395 1.331-4.517 2.467-6.366 1.145-1.848 2.518-3.409 4.119-4.683 1.603-1.283 3.346-2.249 5.23-2.9 1.886-0.66 3.826-0.99 5.822-0.99 1.755 0 3.332 0.245 4.732 0.736 1.412 0.481 2.601 1.169 3.567 2.065 0.978 0.887 1.695 1.938 2.15 3.155s0.605 2.551 0.451 4.004h-8.128zM116.191 15.741c-0.686 3.225-1.905 5.946-3.658 8.163-1.752 2.207-3.838 3.881-6.26 5.022-2.42 1.132-4.97 1.698-7.65 1.698-2.7 0-5.018-0.571-6.954-1.712-1.925-1.151-3.294-2.829-4.107-5.036-0.802-2.216-0.862-4.928-0.18-8.134 0.686-3.225 1.899-5.942 3.641-8.148 1.753-2.216 3.835-3.89 6.245-5.022 2.422-1.141 4.982-1.712 7.682-1.712 2.68 0 4.989 0.571 6.926 1.712 1.938 1.132 3.313 2.806 4.125 5.022 0.813 2.207 0.877 4.923 0.191 8.148zM107.918 15.741c0.369-1.735 0.443-3.197 0.224-4.385-0.208-1.198-0.705-2.103-1.491-2.716-0.774-0.622-1.826-0.934-3.157-0.934s-2.52 0.311-3.568 0.934c-1.037 0.613-1.919 1.518-2.646 2.716-0.716 1.188-1.258 2.65-1.626 4.385s-0.449 3.202-0.241 4.4c0.22 1.188 0.717 2.094 1.491 2.716 0.786 0.613 1.844 0.919 3.174 0.919s2.514-0.306 3.551-0.919c1.048-0.623 1.93-1.528 2.646-2.716 0.727-1.198 1.275-2.664 1.644-4.4z"></path>
</svg>