<svg version="1.1" xmlns="http://www.w3.org/2000/svg" viewBox="0 0 32 32">
  <path stroke-linejoin="round" stroke-linecap="round" stroke-miterlimit="4" stroke-width="1.1429"
    stroke="currentColor" fill="currentColor"
    d="M4 9c0-0.552 0.448-1 1-1h22c0.552 0 1 0.448 1 1s-0.448 1-1 1h-22c-0.552 0-1-0.448-1-1zM4 16c0-0.552 0.448-1 1-1h22c0.552 0 1 0.448 1 1s-0.448 1-1 1h-22c-0.552 0-1-0.448-1-1zM15 23c0-0.552 0.448-1 1-1h11c0.552 0 1 0.448 1 1s-0.448 1-1 1h-11c-0.552 0-1-0.448-1-1z"></path>
</svg>