<svg version="1.1" xmlns="http://www.w3.org/2000/svg" fill="currentColor" viewBox="0 0 32 32">
  <path
    d="M15.523 1.971c7.723 0 13.985 6.261 13.985 13.985 0 0.41-0.018 0.815-0.052 1.216h-1.832c-0.61 6.145-5.795 10.944-12.1 10.944-6.716 0-12.16-5.444-12.16-12.16 0-6.306 4.799-11.49 10.944-12.1v-1.832c0.401-0.035 0.806-0.052 1.216-0.052zM14.307 6.303c-4.799 0.598-8.512 4.692-8.512 9.653 0 5.373 4.356 9.728 9.728 9.728 4.961 0 9.055-3.714 9.653-8.512h-10.869v-10.869zM16.739 4.466v10.273h10.273c-0.566-5.409-4.864-9.707-10.273-10.273z"></path>
</svg>