<svg version="1.1" xmlns="http://www.w3.org/2000/svg" fill="currentColor" viewBox="0 0 32 32">
  <path
    d="M24.753 28.754h-17.855c-2.113 0-3.826-1.713-3.826-3.826v-20.406c0-0.704 0.571-1.275 1.275-1.275h17.855c0.704 0 1.275 0.571 1.275 1.275v15.304h5.101v5.102c0 2.113-1.713 3.826-3.826 3.826zM23.478 22.377v2.551c0 0.704 0.571 1.275 1.275 1.275s1.275-0.571 1.275-1.275v-2.551h-2.551zM20.927 26.203v-20.406h-15.304v19.13c0 0.704 0.571 1.275 1.275 1.275h14.029zM8.173 9.623h10.203v2.551h-10.203v-2.551zM8.173 14.725h10.203v2.551h-10.203v-2.551zM8.173 19.826h6.377v2.551h-6.377v-2.551z"></path>
</svg>