<svg version="1.1" xmlns="http://www.w3.org/2000/svg" viewBox="0 0 32 32">
  <path fill="currentColor"
    d="M3.429 17.263h6.921c0.226 4.13 1.554 7.966 3.695 11.22-5.64-0.877-10.046-5.484-10.616-11.22zM3.429 14.737c0.57-5.736 4.976-10.343 10.616-11.22-2.141 3.254-3.469 7.090-3.695 11.22h-6.921zM28.571 14.737h-6.921c-0.226-4.13-1.554-7.966-3.695-11.22 5.64 0.876 10.046 5.484 10.616 11.22zM28.571 17.263c-0.57 5.736-4.976 10.343-10.616 11.22 2.141-3.254 3.469-7.090 3.695-11.22h6.921zM12.88 17.263h6.239c-0.217 3.516-1.332 6.788-3.12 9.591-1.787-2.803-2.903-6.075-3.12-9.591zM12.88 14.737c0.217-3.516 1.332-6.788 3.12-9.591 1.787 2.803 2.903 6.075 3.12 9.591h-6.239z"></path>
</svg>