<svg width="32" height="16" viewBox="0 0 32 16" fill="none" xmlns="http://www.w3.org/2000/svg">
<g opacity="0.6" clip-path="url(#clip0_8_1116)">
<path d="M8.40015 16.0088C12.8184 16.0088 16.4001 12.4271 16.4001 8.00884C16.4001 3.59056 12.8184 0.00888062 8.40015 0.00888062C3.98187 0.00888062 0.400146 3.59056 0.400146 8.00884C0.400146 12.4271 3.98187 16.0088 8.40015 16.0088Z" fill="white"/>
<path d="M0.400146 24C4.81843 24 8.40015 20.4183 8.40015 16C8.40015 11.5817 4.81843 8 0.400146 8C-4.01813 8 -7.59985 11.5817 -7.59985 16C-7.59985 20.4183 -4.01813 24 0.400146 24Z" fill="#141414"/>
<path d="M16.4001 24C20.8184 24 24.4001 20.4183 24.4001 16C24.4001 11.5817 20.8184 8 16.4001 8C11.9819 8 8.40015 11.5817 8.40015 16C8.40015 20.4183 11.9819 24 16.4001 24Z" fill="#141414"/>
<path d="M0.400146 8C4.81843 8 8.40015 4.41828 8.40015 0C8.40015 -4.41828 4.81843 -8 0.400146 -8C-4.01813 -8 -7.59985 -4.41828 -7.59985 0C-7.59985 4.41828 -4.01813 8 0.400146 8Z" fill="#141414"/>
<path d="M16.4001 8C20.8184 8 24.4001 4.41828 24.4001 0C24.4001 -4.41828 20.8184 -8 16.4001 -8C11.9819 -8 8.40015 -4.41828 8.40015 0C8.40015 4.41828 11.9819 8 16.4001 8Z" fill="#141414"/>
</g>
<g opacity="0.4" clip-path="url(#clip1_8_1116)">
<path d="M27.1999 12.8054C29.8509 12.8054 31.9999 10.6563 31.9999 8.00536C31.9999 5.35439 29.8509 3.20538 27.1999 3.20538C24.5489 3.20538 22.3999 5.35439 22.3999 8.00536C22.3999 10.6563 24.5489 12.8054 27.1999 12.8054Z" fill="white"/>
<path d="M22.4001 17.6C25.0511 17.6 27.2001 15.451 27.2001 12.8C27.2001 10.1491 25.0511 8.00003 22.4001 8.00003C19.7491 8.00003 17.6001 10.1491 17.6001 12.8C17.6001 15.451 19.7491 17.6 22.4001 17.6Z" fill="#141414"/>
<path d="M32.0002 17.6C34.6512 17.6 36.8002 15.451 36.8002 12.8C36.8002 10.1491 34.6512 8.00003 32.0002 8.00003C29.3492 8.00003 27.2002 10.1491 27.2002 12.8C27.2002 15.451 29.3492 17.6 32.0002 17.6Z" fill="#141414"/>
<path d="M22.4001 8.00002C25.0511 8.00002 27.2001 5.85099 27.2001 3.20002C27.2001 0.549057 25.0511 -1.59998 22.4001 -1.59998C19.7491 -1.59998 17.6001 0.549057 17.6001 3.20002C17.6001 5.85099 19.7491 8.00002 22.4001 8.00002Z" fill="#141414"/>
<path d="M32.0002 8.00002C34.6512 8.00002 36.8002 5.85099 36.8002 3.20002C36.8002 0.549057 34.6512 -1.59998 32.0002 -1.59998C29.3492 -1.59998 27.2002 0.549057 27.2002 3.20002C27.2002 5.85099 29.3492 8.00002 32.0002 8.00002Z" fill="#141414"/>
</g>
<defs>
<clipPath id="clip0_8_1116">
<rect width="16" height="16" fill="white" transform="translate(0.399902)"/>
</clipPath>
<clipPath id="clip1_8_1116">
<rect width="9.6" height="9.6" fill="white" transform="translate(22.3999 3.20001)"/>
</clipPath>
</defs>
</svg>
