<svg width="80" height="80" viewBox="0 0 80 80" fill="none" xmlns="http://www.w3.org/2000/svg">
<g id="how-buy-step3 1">
<path id="Vector" opacity="0.2" fill-rule="evenodd" clip-rule="evenodd" d="M29.6199 73.3342C25.7306 73.3223 21.2636 71.7776 16.6665 67.1806V43.3342H36.4164L48.4909 55.4087C45.477 58.4226 40.5904 58.4226 37.5765 55.4087L32.4153 50.2475L30.7332 51.9296L38.7379 60.0206H63.3332C63.3332 67.3682 57.3768 73.3246 50.0293 73.3246L29.8117 73.3342H29.6199Z" fill="#929AA5"/>
<path id="Vector_2" opacity="0.5" d="M6.6665 43.3342H16.6665V73.3342H6.6665V43.3342Z" fill="#AEB4BC"/>
<path id="Vector_3" fill-rule="evenodd" clip-rule="evenodd" d="M56.6667 10C65.8714 10 73.3333 17.4619 73.3333 26.6667C73.3333 35.8714 65.8714 43.3333 56.6667 43.3333C47.4619 43.3333 40 35.8714 40 26.6667C40 17.4619 47.4619 10 56.6667 10ZM56.6667 33.3334L50 26.6667L56.6667 20.0001L63.3333 26.6667L56.6667 33.3334Z" fill="#F0B90B"/>
</g>
</svg>
