<svg xmlns="http://www.w3.org/2000/svg" width="80" height="18" viewBox="0 0 80 18" fill="none">
  <path d="M73.3984 2.85742C73.3984 2.28451 73.584 1.81901 73.9551 1.46094C74.3327 1.10286 74.9316 0.923828 75.752 0.923828C76.5723 0.923828 77.168 1.10286 77.5391 1.46094C77.9167 1.81901 78.1055 2.28451 78.1055 2.85742C78.1055 3.18294 77.9915 3.48242 77.7637 3.75586C77.5423 4.0293 77.2493 4.2474 76.8848 4.41016C76.5202 4.56641 76.1426 4.64453 75.752 4.64453C75.3288 4.64453 74.9349 4.55339 74.5703 4.37109C74.2122 4.18229 73.9258 3.94792 73.7109 3.66797C73.5026 3.38802 73.3984 3.11784 73.3984 2.85742ZM72.9199 8.44336C72.8353 8.12435 72.7767 7.83464 72.7441 7.57422C72.7116 7.30729 72.6953 7.0306 72.6953 6.74414L72.7051 6.4707C72.8418 6.29492 73.0534 6.11914 73.3398 5.94336C73.6328 5.76107 73.9714 5.60807 74.3555 5.48438C74.7461 5.36068 75.1497 5.29883 75.5664 5.29883C76.4779 5.29883 77.1257 5.50391 77.5098 5.91406C77.8939 6.32422 78.0859 6.96224 78.0859 7.82812C78.0859 8.34896 78.0111 9.0293 77.8613 9.86914C77.7181 10.709 77.5423 11.526 77.334 12.3203C77.1322 13.1081 76.9564 13.6712 76.8066 14.0098L76.8262 14.0293L78.2715 13.502C78.5319 13.7233 78.7272 13.9674 78.8574 14.2344C78.9941 14.5013 79.082 14.8105 79.1211 15.1621C79.1211 15.2077 78.9779 15.3965 78.6914 15.7285C78.4049 16.054 78.0241 16.36 77.5488 16.6465C77.0801 16.9264 76.5365 17.0664 75.918 17.0664C75.293 17.0664 74.7852 16.8971 74.3945 16.5586C74.0104 16.2201 73.8184 15.6406 73.8184 14.8203C73.8184 13.8633 73.8444 12.8477 73.8965 11.7734C73.9486 10.6992 74.0299 9.65755 74.1406 8.64844L72.9199 8.44336Z" fill="#6A3CD6"/>
  <path d="M64.7656 10.4355C65.1497 10.4355 65.5729 10.4746 66.0352 10.5527C66.5039 10.6309 66.9336 10.7253 67.3242 10.8359V10.5332C67.3242 10.3314 67.3177 10.1068 67.3047 9.85938C67.2982 9.61198 67.2852 9.44922 67.2656 9.37109C67.207 9.26042 67.0378 9.14648 66.7578 9.0293C66.4844 8.91211 66.0352 8.85352 65.4102 8.85352C65.026 8.85352 64.6289 8.90234 64.2188 9C63.8151 9.09115 63.3659 9.21484 62.8711 9.37109C62.6042 8.92839 62.3893 8.50846 62.2266 8.11133C62.0703 7.70768 61.9922 7.30404 61.9922 6.90039C61.9922 6.77669 62.002 6.65299 62.0215 6.5293C63.0762 5.70898 64.4401 5.29883 66.1133 5.29883C67.0378 5.29883 67.8581 5.40299 68.5742 5.61133C69.2904 5.81966 69.8796 6.22331 70.3418 6.82227C70.804 7.42122 71.0352 8.27083 71.0352 9.37109C71.0352 10.4453 70.9082 11.487 70.6543 12.4961C70.4069 13.4987 70.2799 14.0098 70.2734 14.0293L71.6895 13.4238C71.8783 13.6257 72.0443 13.873 72.1875 14.166C72.3372 14.4525 72.4316 14.7845 72.4707 15.1621C72.3796 15.3574 72.181 15.6081 71.875 15.9141C71.569 16.2135 71.1947 16.4805 70.752 16.7148C70.3092 16.9492 69.847 17.0664 69.3652 17.0664C68.8249 17.0664 68.4147 16.9069 68.1348 16.5879C67.8613 16.2689 67.7246 15.8555 67.7246 15.3477C67.7246 15.0612 67.7669 14.7715 67.8516 14.4785L67.5586 14.3906C67.3763 15.4193 66.9889 16.1224 66.3965 16.5C65.804 16.8776 65.1497 17.0664 64.4336 17.0664C63.9648 17.0664 63.5124 16.9362 63.0762 16.6758C62.64 16.4089 62.2852 16.0247 62.0117 15.5234C61.7383 15.0156 61.6016 14.4232 61.6016 13.7461C61.6016 12.6654 61.8717 11.8451 62.4121 11.2852C62.9525 10.7188 63.737 10.4355 64.7656 10.4355ZM65.8789 14.1562C66.0417 14.1237 66.2337 14.0326 66.4551 13.8828C66.6829 13.7331 66.8848 13.554 67.0605 13.3457C67.2363 13.1374 67.3405 12.9388 67.373 12.75L67.3145 12.5156C66.9694 12.4701 66.6016 12.4473 66.2109 12.4473C65.8789 12.4473 65.651 12.4733 65.5273 12.5254C65.319 12.7598 65.2148 13.0202 65.2148 13.3066C65.2148 13.515 65.2669 13.7038 65.3711 13.873C65.4818 14.0423 65.651 14.1367 65.8789 14.1562Z" fill="#6A3CD6"/>
  <path d="M57.6367 12.9551C58.4961 12.9551 59.1211 13.1439 59.5117 13.5215C59.9089 13.8926 60.1074 14.3613 60.1074 14.9277C60.1074 15.3053 59.987 15.6602 59.7461 15.9922C59.5117 16.3177 59.2025 16.5781 58.8184 16.7734C58.4408 16.9688 58.0469 17.0664 57.6367 17.0664C57.2266 17.0664 56.8294 16.9688 56.4453 16.7734C56.0677 16.5781 55.7585 16.3177 55.5176 15.9922C55.2832 15.6602 55.166 15.3053 55.166 14.9277C55.166 14.3613 55.3613 13.8926 55.752 13.5215C56.1491 13.1439 56.7773 12.9551 57.6367 12.9551Z" fill="#6A3CD6"/>
  <path d="M46.4453 13.4238C47.0182 13.6517 47.4772 13.8275 47.8223 13.9512C48.1673 14.0749 48.5449 14.1823 48.9551 14.2734C49.3717 14.3646 49.7852 14.4102 50.1953 14.4102C50.3776 14.4102 50.5078 14.3939 50.5859 14.3613C50.6055 14.3353 50.6217 14.2962 50.6348 14.2441C50.6543 14.1855 50.6641 14.127 50.6641 14.0684C50.6641 13.9382 50.5892 13.8307 50.4395 13.7461C50.2051 13.6159 49.7884 13.4108 49.1895 13.1309C48.3691 12.7402 47.7181 12.3919 47.2363 12.0859C46.7611 11.7799 46.3574 11.373 46.0254 10.8652C45.6999 10.3574 45.5371 9.7194 45.5371 8.95117C45.5371 7.85091 45.8659 6.96875 46.5234 6.30469C47.181 5.63411 48.2227 5.29883 49.6484 5.29883C51.3477 5.29883 52.6693 5.52018 53.6133 5.96289C53.6589 6.15169 53.6816 6.38932 53.6816 6.67578C53.6816 7.22266 53.597 7.78255 53.4277 8.35547C53.2585 8.92188 53.0371 9.3418 52.7637 9.61523C52.3926 9.49154 51.8685 9.29297 51.1914 9.01953C50.6966 8.82422 50.3027 8.67448 50.0098 8.57031C49.7233 8.45964 49.4596 8.38151 49.2188 8.33594C49.0885 8.36849 48.9844 8.44661 48.9062 8.57031C48.8281 8.6875 48.7891 8.82747 48.7891 8.99023C48.7891 9.13346 48.8314 9.25391 48.916 9.35156C49.0007 9.44922 49.0951 9.52734 49.1992 9.58594C49.3099 9.63802 49.4661 9.70964 49.668 9.80078C49.7721 9.84635 49.8698 9.88867 49.9609 9.92773C50.0521 9.96029 50.1367 9.99284 50.2148 10.0254C50.7227 10.2402 51.123 10.416 51.416 10.5527C51.709 10.6895 51.9922 10.8522 52.2656 11.041C52.7669 11.3861 53.1608 11.7799 53.4473 12.2227C53.7337 12.6654 53.877 13.1504 53.877 13.6777C53.877 14.4069 53.6686 15.0384 53.252 15.5723C52.8418 16.0996 52.3145 16.4837 51.6699 16.7246C51.3314 16.8483 50.9603 16.9362 50.5566 16.9883C50.1595 17.0469 49.694 17.0762 49.1602 17.0762C48.5286 17.0762 47.8776 16.9557 47.207 16.7148C46.543 16.4674 46.0352 16.0573 45.6836 15.4844C45.6901 15.0872 45.7422 14.7422 45.8398 14.4492C45.944 14.1497 46.1458 13.8079 46.4453 13.4238Z" fill="#6A3CD6"/>
  <path d="M34.375 11.1973C34.375 10.071 34.5638 9.0651 34.9414 8.17969C35.319 7.29427 35.9017 6.5944 36.6895 6.08008C37.4837 5.55924 38.4733 5.29883 39.6582 5.29883C40.2767 5.29883 40.8952 5.3737 41.5137 5.52344C42.1322 5.66667 42.6562 5.90755 43.0859 6.24609C43.4831 6.5651 43.7695 6.98828 43.9453 7.51562C44.1276 8.03646 44.2188 8.61589 44.2188 9.25391C44.2188 9.67708 44.1829 10.11 44.1113 10.5527C44.0332 10.6829 43.8802 10.8555 43.6523 11.0703C43.4245 11.2786 43.1576 11.4837 42.8516 11.6855C42.5456 11.8874 42.2493 12.0436 41.9629 12.1543C41.6895 12.1738 41.4062 12.1836 41.1133 12.1836C40.599 12.1836 40.0781 12.1608 39.5508 12.1152C39.0234 12.0697 38.5612 12.0176 38.1641 11.959C38.2161 12.5124 38.3854 12.9941 38.6719 13.4043C38.9583 13.8145 39.4141 14.0195 40.0391 14.0195C40.0977 14.0195 40.1921 14.013 40.3223 14C40.7194 13.9609 41.1816 13.8568 41.709 13.6875C42.2428 13.5117 42.7734 13.3099 43.3008 13.082C43.5482 13.3294 43.7305 13.5768 43.8477 13.8242C43.9648 14.0716 44.0462 14.4264 44.0918 14.8887C43.89 15.123 43.5612 15.4095 43.1055 15.748C42.6562 16.0866 42.1061 16.3926 41.4551 16.666C40.804 16.9329 40.1237 17.0664 39.4141 17.0664C38.3464 17.0664 37.4316 16.8092 36.6699 16.2949C35.9147 15.7741 35.3418 15.071 34.9512 14.1855C34.5671 13.2936 34.375 12.2975 34.375 11.1973ZM40.6641 8.95117C40.5729 8.85352 40.4199 8.77865 40.2051 8.72656C39.9902 8.66797 39.7656 8.63867 39.5312 8.63867C39.3424 8.63867 39.1504 8.65495 38.9551 8.6875C38.7663 8.72005 38.6523 8.75586 38.6133 8.79492C38.3919 9.23112 38.252 9.72591 38.1934 10.2793L40.8008 10.0254L40.6641 8.95117Z" fill="#6A3CD6"/>
  <path d="M25.5859 14.2539C25.5859 13.974 25.5924 13.2871 25.6055 12.1934C25.625 10.0449 25.6348 8.86979 25.6348 8.66797L24.7363 8.52148C24.6126 8.15039 24.5247 7.80208 24.4727 7.47656C24.4206 7.15104 24.3945 6.82227 24.3945 6.49023C24.3945 6.35352 24.3978 6.24935 24.4043 6.17773C24.515 6.08008 24.6875 5.96289 24.9219 5.82617C25.1562 5.68945 25.4329 5.56901 25.752 5.46484C26.071 5.35417 26.3965 5.29883 26.7285 5.29883C27.5033 5.29883 28.0632 5.47135 28.4082 5.81641C28.7598 6.16146 28.9355 6.66602 28.9355 7.33008C28.9355 7.73372 28.8835 8.2513 28.7793 8.88281C28.6816 9.50781 28.5807 9.95378 28.4766 10.2207L28.8281 10.2793L29.4141 8.07227C29.6745 7.07617 30 6.36654 30.3906 5.94336C30.7812 5.51367 31.2207 5.29883 31.709 5.29883C32.028 5.29883 32.3438 5.34766 32.6562 5.44531C32.9753 5.54297 33.2194 5.66341 33.3887 5.80664C33.571 6.21029 33.6621 6.7474 33.6621 7.41797C33.6621 7.88672 33.6165 8.35221 33.5254 8.81445C33.4342 9.27018 33.3171 9.63802 33.1738 9.91797L31.123 9.64453C30.7064 10.0872 30.2637 10.7025 29.7949 11.4902C29.3262 12.2715 28.9518 12.9909 28.6719 13.6484L28.6621 14.1562L30.5566 13.707C30.8757 14.1953 31.0612 14.7747 31.1133 15.4453C31.1133 15.4844 30.9668 15.6439 30.6738 15.9238C30.3809 16.2038 29.9935 16.4642 29.5117 16.7051C29.0365 16.9395 28.4896 17.0566 27.8711 17.0566C27.2331 17.0566 26.6992 16.8874 26.2695 16.5488C25.8464 16.2038 25.6217 15.6243 25.5957 14.8105C25.5892 14.7129 25.5859 14.5273 25.5859 14.2539Z" fill="#6A3CD6"/>
  <path d="M16.4062 10.4355C16.7904 10.4355 17.2135 10.4746 17.6758 10.5527C18.1445 10.6309 18.5742 10.7253 18.9648 10.8359V10.5332C18.9648 10.3314 18.9583 10.1068 18.9453 9.85938C18.9388 9.61198 18.9258 9.44922 18.9062 9.37109C18.8477 9.26042 18.6784 9.14648 18.3984 9.0293C18.125 8.91211 17.6758 8.85352 17.0508 8.85352C16.6667 8.85352 16.2695 8.90234 15.8594 9C15.4557 9.09115 15.0065 9.21484 14.5117 9.37109C14.2448 8.92839 14.0299 8.50846 13.8672 8.11133C13.7109 7.70768 13.6328 7.30404 13.6328 6.90039C13.6328 6.77669 13.6426 6.65299 13.6621 6.5293C14.7168 5.70898 16.0807 5.29883 17.7539 5.29883C18.6784 5.29883 19.4987 5.40299 20.2148 5.61133C20.931 5.81966 21.5202 6.22331 21.9824 6.82227C22.4447 7.42122 22.6758 8.27083 22.6758 9.37109C22.6758 10.4453 22.5488 11.487 22.2949 12.4961C22.0475 13.4987 21.9206 14.0098 21.9141 14.0293L23.3301 13.4238C23.5189 13.6257 23.6849 13.873 23.8281 14.166C23.9779 14.4525 24.0723 14.7845 24.1113 15.1621C24.0202 15.3574 23.8216 15.6081 23.5156 15.9141C23.2096 16.2135 22.8353 16.4805 22.3926 16.7148C21.9499 16.9492 21.4876 17.0664 21.0059 17.0664C20.4655 17.0664 20.0553 16.9069 19.7754 16.5879C19.502 16.2689 19.3652 15.8555 19.3652 15.3477C19.3652 15.0612 19.4076 14.7715 19.4922 14.4785L19.1992 14.3906C19.0169 15.4193 18.6296 16.1224 18.0371 16.5C17.4447 16.8776 16.7904 17.0664 16.0742 17.0664C15.6055 17.0664 15.153 16.9362 14.7168 16.6758C14.2806 16.4089 13.9258 16.0247 13.6523 15.5234C13.3789 15.0156 13.2422 14.4232 13.2422 13.7461C13.2422 12.6654 13.5124 11.8451 14.0527 11.2852C14.5931 10.7188 15.3776 10.4355 16.4062 10.4355ZM17.5195 14.1562C17.6823 14.1237 17.8743 14.0326 18.0957 13.8828C18.3236 13.7331 18.5254 13.554 18.7012 13.3457C18.877 13.1374 18.9811 12.9388 19.0137 12.75L18.9551 12.5156C18.61 12.4701 18.2422 12.4473 17.8516 12.4473C17.5195 12.4473 17.2917 12.4733 17.168 12.5254C16.9596 12.7598 16.8555 13.0202 16.8555 13.3066C16.8555 13.515 16.9076 13.7038 17.0117 13.873C17.1224 14.0423 17.2917 14.1367 17.5195 14.1562Z" fill="#6A3CD6"/>
  <path d="M1.16211 10.5234C1.16211 7.5026 1.2207 5.42578 1.33789 4.29297L0.234375 4.09766C0.078125 3.4987 0 2.85417 0 2.16406C0.0976562 2.04036 0.279948 1.88737 0.546875 1.70508C0.813802 1.52279 1.12305 1.36328 1.47461 1.22656C1.83268 1.08984 2.1875 1.02148 2.53906 1.02148C3.33984 1.02148 3.93555 1.22656 4.32617 1.63672C4.7168 2.04688 4.91211 2.67513 4.91211 3.52148C4.91211 3.89258 4.87956 4.49154 4.81445 5.31836C4.74935 6.13867 4.65495 7.02083 4.53125 7.96484C4.40755 8.90234 4.26432 9.73893 4.10156 10.4746C4.10156 10.5137 4.12435 10.5495 4.16992 10.582C4.21549 10.6146 4.26432 10.6309 4.31641 10.6309C4.375 10.6309 4.41406 10.6081 4.43359 10.5625C4.69401 9.52734 4.95443 8.66146 5.21484 7.96484C5.47526 7.26823 5.86914 6.64974 6.39648 6.10938C6.92383 5.56901 7.60742 5.29883 8.44727 5.29883C9.48893 5.29883 10.2376 5.61784 10.6934 6.25586C11.1491 6.88737 11.377 7.6849 11.377 8.64844C11.377 9.50781 11.276 10.3379 11.0742 11.1387C10.8724 11.9329 10.6217 12.763 10.3223 13.6289C10.3353 13.5964 10.2897 13.7233 10.1855 14.0098L10.2051 14.0293L11.6504 13.4238C12.1582 13.86 12.4544 14.4395 12.5391 15.1621C12.5391 15.2077 12.3926 15.3965 12.0996 15.7285C11.8066 16.054 11.4193 16.36 10.9375 16.6465C10.4622 16.9264 9.91536 17.0664 9.29688 17.0664C8.67839 17.0664 8.17383 16.9004 7.7832 16.5684C7.39258 16.2363 7.19727 15.6699 7.19727 14.8691C7.19727 14.2311 7.22331 13.3783 7.27539 12.3105C7.32747 11.2428 7.37956 10.3835 7.43164 9.73242C7.26237 9.55013 7.05404 9.45247 6.80664 9.43945C6.57878 9.73242 6.24349 10.3184 5.80078 11.1973C5.35807 12.0762 5.04557 12.7337 4.86328 13.1699C4.85026 13.2611 4.84375 13.349 4.84375 13.4336C4.84375 13.7591 4.89258 14.1986 4.99023 14.752C5.08789 15.2988 5.20833 15.8099 5.35156 16.2852C5.23438 16.5065 4.99349 16.6921 4.62891 16.8418C4.26432 16.9915 3.8151 17.0664 3.28125 17.0664C2.79948 17.0664 2.41211 17.0273 2.11914 16.9492C1.83268 16.8711 1.63086 16.7897 1.51367 16.7051C1.39648 16.6139 1.33789 16.5586 1.33789 16.5391C1.33138 16.4805 1.3151 16.3275 1.28906 16.0801C1.26302 15.8262 1.23698 15.4746 1.21094 15.0254C1.1849 14.5697 1.17188 14.0521 1.17188 13.4727L1.16211 10.5234Z" fill="#6A3CD6"/>
</svg>