<svg width="121" height="120" viewBox="0 0 121 120" fill="none" xmlns="http://www.w3.org/2000/svg">
<g id="search" clip-path="url(#clip0_20_1170)">
<g id="icon">
<path id="&#230;&#164;&#173;&#229;&#156;&#134;&#229;&#189;&#162;&#229;&#164;&#135;&#228;&#187;&#189;-2" fill-rule="evenodd" clip-rule="evenodd" d="M60.5 120C93.6371 120 120.5 93.1371 120.5 60C120.5 26.8629 93.6371 0 60.5 0C45.633 0 39.9818 17.8318 29.5 26.7868C16.6188 37.7917 0.5 41.7299 0.5 60C0.5 93.1371 27.3629 120 60.5 120Z" fill="#262626"/>
<path id="Rectangle 584" d="M35.5 40C35.5 35.5817 39.0817 32 43.5 32H81.5C85.9183 32 89.5 35.5817 89.5 40V83C89.5 87.4183 85.9183 91 81.5 91H43.5C39.0817 91 35.5 87.4183 35.5 83V40Z" fill="#393939"/>
<path id="&#232;&#183;&#175;&#229;&#190;&#132;-5 (Stroke)" fill-rule="evenodd" clip-rule="evenodd" d="M85.1609 87.8685C86.1929 86.9512 86.2858 85.371 85.3686 84.3391L77.3686 75.3391C76.4513 74.3071 74.8711 74.2142 73.8391 75.1314C72.8072 76.0487 72.7142 77.6289 73.6315 78.6609L81.6315 87.6609C82.5488 88.6928 84.129 88.7858 85.1609 87.8685Z" fill="#7E7E7E"/>
<path id="Ellipse 144 (Stroke)" fill-rule="evenodd" clip-rule="evenodd" d="M66.5 54.5C60.701 54.5 56 59.201 56 65C56 70.799 60.701 75.5 66.5 75.5C72.299 75.5 77 70.799 77 65C77 59.201 72.299 54.5 66.5 54.5ZM51 65C51 56.4396 57.9396 49.5 66.5 49.5C75.0604 49.5 82 56.4396 82 65C82 73.5604 75.0604 80.5 66.5 80.5C57.9396 80.5 51 73.5604 51 65Z" fill="#B9B9B9"/>
</g>
</g>
<defs>
<clipPath id="clip0_20_1170">
<rect width="120" height="120" fill="white" transform="translate(0.5)"/>
</clipPath>
</defs>
</svg>
